# xmcd
#
# Track frame offsets: 
#        150
#        14242
#        26774
#        46777
#        74340
#        84935
#        100479
#        119963
#        141665
#        160184
#        180547
#        200127
#        222018
#        240101
#        260162
#
# Disc length: 3776 seconds
#
# Revision: 0
# Processed by: cddbd v1.5.2PL0 Copyright (c) Steve Scherf et al.
# Submitted via: ExactAudioCopy v1.0b1
#
DISCID=e20ebe0f
DTITLE=Notodden Blues Band - Så Langt Som Hit ...halve FUA ute CD2
DYEAR=2008
DGENRE=Blues
TTITLE0=Island 
TTITLE1=6345 789 -  Live!
TTITLE2=I'm Down 
TTITLE3=Siste Nått (T. Ytterbø)
TTITLE4=På Heimveg
TTITLE5=Blues Never Die (O. Spann) Live!
TTITLE6=Dama Mi (Bent Bredesen)
TTITLE7=I'd Rather Go Blind - Live!
TTITLE8=I'm Gonna Tear Your Playhouse Down (Earl Randle)
TTITLE9=Smoking Gun -  Live!
TTITLE10=Trollhallingen (trad etter Knut Dahle)
TTITLE11=Eller Kjent Deg Så Nær Før
TTITLE12=Menneske I Mjuk Sofa
TTITLE13=Mr. Bad Luck (Steve Wold)
TTITLE14=Still Be Around
EXTD=
EXTT0=
EXTT1=
EXTT2=
EXTT3=
EXTT4=
EXTT5=
EXTT6=
EXTT7=
EXTT8=
EXTT9=
EXTT10=
EXTT11=
EXTT12=
EXTT13=
EXTT14=
PLAYORDER=
